<svg width="27" height="27" viewBox="0 0 27 27" fill="none" xmlns="http://www.w3.org/2000/svg">
<path d="M20.349 11.703C19.97 12.0843 19.6798 12.5445 19.499 13.0507C19.3182 13.557 19.2513 14.0969 19.303 14.632L19.285 14.614C19.3382 15.2439 19.2532 15.8777 19.0361 16.4714C18.819 17.065 18.475 17.6041 18.0281 18.0511C17.5811 18.498 17.042 18.8421 16.4483 19.0591C15.8547 19.2762 15.2208 19.3612 14.591 19.308L14.609 19.326C13.8556 19.2559 13.0989 19.4198 12.442 19.7955C11.7852 20.1712 11.2602 20.7403 10.9387 21.4253C10.6172 22.1103 10.5147 22.8777 10.6453 23.6231C10.776 24.3684 11.1333 25.0553 11.6686 25.5901C12.2039 26.1249 12.8911 26.4816 13.6365 26.6115C14.382 26.7415 15.1493 26.6383 15.834 26.3162C16.5187 25.994 17.0873 25.4686 17.4624 24.8114C17.8375 24.1542 18.0008 23.3974 17.93 22.644L17.949 22.662C17.8958 22.0322 17.9807 21.3983 18.1978 20.8046C18.4149 20.211 18.759 19.6719 19.2059 19.2249C19.6529 18.778 20.192 18.4339 20.7856 18.2169C21.3793 17.9998 22.0131 17.9148 22.643 17.968L22.624 17.95C23.2394 18.0053 23.8589 17.9044 24.425 17.6566C24.991 17.4088 25.4854 17.0221 25.8622 16.5324C26.239 16.0427 26.4862 15.4657 26.5806 14.8551C26.6751 14.2444 26.6139 13.6198 26.4027 13.039C26.1915 12.4583 25.8371 11.9403 25.3724 11.533C24.9077 11.1257 24.3477 10.8423 23.7443 10.7091C23.1409 10.5759 22.5136 10.5971 21.9206 10.7708C21.3276 10.9446 20.7881 11.2652 20.352 11.703H20.349Z" fill="black"/>
<path d="M12.972 16.968L12.953 16.95C13.4883 17.0039 14.0289 16.9382 14.5358 16.7576C15.0426 16.577 15.503 16.2861 15.8836 15.9058C16.2641 15.5255 16.5555 15.0653 16.7364 14.5586C16.9174 14.0519 16.9835 13.5114 16.93 12.976L16.949 12.994C16.8958 12.3641 16.9808 11.7303 17.1978 11.1366C17.4149 10.543 17.759 10.0039 18.2059 9.55693C18.6529 9.11003 19.192 8.76593 19.7856 8.54893C20.3793 8.33179 21.0131 8.24686 21.643 8.30003L21.624 8.28203C22.3775 8.35283 23.1344 8.18939 23.7916 7.81413C24.4489 7.43887 24.9743 6.87 25.2963 6.18513C25.6183 5.50027 25.7212 4.73274 25.591 3.98723C25.4608 3.24172 25.1038 2.55454 24.5686 2.0194C24.0335 1.48427 23.3463 1.12723 22.6008 0.997007C21.8553 0.866777 21.0878 0.969687 20.4029 1.29171C19.718 1.61372 19.1492 2.13917 18.7739 2.79638C18.3986 3.45358 18.2352 4.21055 18.306 4.96403L18.288 4.94503C18.3413 5.57492 18.2565 6.20886 18.0395 6.80258C17.8225 7.3963 17.4784 7.93549 17.0315 8.38253C16.5845 8.82943 16.0453 9.17353 15.4516 9.39053C14.8578 9.60753 14.2239 9.69233 13.594 9.63903L13.612 9.65803C13.0767 9.60413 12.536 9.66983 12.0292 9.85043C11.5224 10.0309 11.062 10.3219 10.6814 10.7022C10.3008 11.0825 10.0095 11.5427 9.82846 12.0494C9.64756 12.5561 9.58146 13.0966 9.63496 13.632L9.61696 13.614C9.66996 14.2438 9.58486 14.8776 9.36776 15.4712C9.15056 16.0647 8.80656 16.6038 8.35966 17.0507C7.91272 17.4976 7.37368 17.8416 6.78012 18.0588C6.18656 18.2759 5.55277 18.361 4.92296 18.308L4.94096 18.326C4.18748 18.2552 3.43051 18.4186 2.7733 18.7939C2.1161 19.1692 1.59065 19.738 1.26864 20.4229C0.946624 21.1078 0.843704 21.8753 0.973934 22.6208C1.10416 23.3663 1.4612 24.0535 1.99633 24.5886C2.53147 25.1238 3.21865 25.4808 3.96416 25.611C4.70967 25.7412 5.4772 25.6383 6.16207 25.3163C6.84693 24.9943 7.4158 24.4689 7.79106 23.8117C8.16636 23.1544 8.32976 22.3975 8.25896 21.644L8.27796 21.662C8.22476 21.0321 8.30976 20.3983 8.52686 19.8046C8.74386 19.211 9.08796 18.6719 9.53486 18.2249C9.98186 17.778 10.521 17.4339 11.1146 17.2169C11.7083 16.9998 12.3421 16.9148 12.972 16.968Z" fill="black"/>
<path d="M6.2699 14.961C6.64892 14.5798 6.9391 14.1196 7.11974 13.6133C7.30038 13.107 7.36702 12.567 7.3149 12.032L7.33389 12.05C7.28069 11.42 7.36565 10.7859 7.58286 10.1921C7.80007 9.59827 8.1443 9.05907 8.5915 8.61207C9.0387 8.16509 9.578 7.8211 10.1719 7.60415C10.7658 7.38719 11.3999 7.30249 12.0299 7.35597L12.0109 7.33797C12.7641 7.40854 13.5208 7.24505 14.1777 6.86981C14.8346 6.49458 15.3597 5.92585 15.6816 5.2412C16.0034 4.55654 16.1062 3.78929 15.976 3.04406C15.8458 2.29883 15.4888 1.61191 14.9539 1.07697C14.419 0.54203 13.732 0.18511 12.9868 0.0548905C12.2416 -0.0753395 11.4743 0.0274805 10.7897 0.3493C10.105 0.67112 9.5363 1.19629 9.1611 1.85319C8.7858 2.51009 8.6223 3.26675 8.6929 4.01997L8.6749 4.00197C8.7281 4.63182 8.6431 5.26569 8.426 5.85933C8.2089 6.45297 7.86492 6.99208 7.41796 7.43904C6.97101 7.886 6.43189 8.23003 5.83825 8.44707C5.24461 8.66417 4.61075 8.74917 3.9809 8.69597L3.9989 8.71397C3.38347 8.65877 2.76406 8.75987 2.19808 9.00777C1.6321 9.25567 1.13785 9.64247 0.761139 10.1323C0.384429 10.622 0.137449 11.199 0.0430689 11.8096C-0.0513011 12.4203 0.0099889 13.0449 0.221259 13.6255C0.432529 14.2062 0.786959 14.7241 1.25169 15.1313C1.71642 15.5386 2.27642 15.8219 2.8798 15.9551C3.48317 16.0882 4.1104 16.0669 4.70337 15.8932C5.29633 15.7194 5.83583 15.3988 6.27189 14.961H6.2699Z" fill="black"/>
</svg>
