<svg width="22" height="21" viewBox="0 0 22 21" fill="none" xmlns="http://www.w3.org/2000/svg">
<path d="M6.19195 11.1846H8.49389V20.6613C8.49389 20.8484 8.6455 21 8.8326 21H12.7356C12.9227 21 13.0743 20.8484 13.0743 20.6613V11.2292H15.7206C15.8927 11.2292 16.0374 11.1001 16.0571 10.9292L16.459 7.44037C16.47 7.34438 16.4396 7.24825 16.3754 7.17624C16.3111 7.10416 16.2191 7.06291 16.1226 7.06291H13.0745V4.87593C13.0745 4.21666 13.4294 3.88236 14.1296 3.88236C14.2294 3.88236 16.1226 3.88236 16.1226 3.88236C16.3097 3.88236 16.4613 3.73068 16.4613 3.54365V0.341216C16.4613 0.154113 16.3097 0.00250645 16.1226 0.00250645H13.376C13.3566 0.00155806 13.3136 0 13.2502 0C12.7736 0 11.1171 0.0935515 9.80862 1.29733C8.35881 2.6313 8.56034 4.22852 8.60851 4.50545V7.06284H6.19195C6.00485 7.06284 5.85324 7.21445 5.85324 7.40155V10.8458C5.85324 11.0329 6.00485 11.1846 6.19195 11.1846Z" fill="white"/>
</svg>
