<svg width="24" height="25" viewBox="0 0 24 25" fill="none" xmlns="http://www.w3.org/2000/svg">
<path d="M11.8254 17.1666C14.4043 17.1666 16.495 15.0772 16.495 12.4999C16.495 9.92259 14.4043 7.83325 11.8254 7.83325C9.24644 7.83325 7.15579 9.92259 7.15579 12.4999C7.15579 15.0772 9.24644 17.1666 11.8254 17.1666Z" stroke="white" stroke-width="2.5" stroke-linecap="round" stroke-linejoin="round"/>
<path d="M1.31885 17.1667V7.83333C1.31885 4.61168 3.93216 2 7.15583 2H16.495C19.7186 2 22.332 4.61168 22.332 7.83333V17.1667C22.332 20.3883 19.7186 23 16.495 23H7.15583C3.93216 23 1.31885 20.3883 1.31885 17.1667Z" stroke="white" stroke-width="2.5"/>
<path d="M18.2462 6.09515L18.2579 6.08203" stroke="white" stroke-width="2.5" stroke-linecap="round" stroke-linejoin="round"/>
</svg>
